<svg id="call_1_" data-name="call (1)" xmlns="http://www.w3.org/2000/svg" width="35.437" height="35.438" viewBox="0 0 35.437 35.438">
  <g id="Group_663" data-name="Group 663">
    <path id="Path_1267" data-name="Path 1267" d="M32.594,23.261a20.12,20.12,0,0,1-6.319-1.006,2.888,2.888,0,0,0-2.809.592l-3.985,3.008a22.02,22.02,0,0,1-9.9-9.9L12.5,12.075a2.864,2.864,0,0,0,.7-2.9,20.151,20.151,0,0,1-1.01-6.329A2.847,2.847,0,0,0,9.351,0H2.844A2.847,2.847,0,0,0,0,2.844,32.631,32.631,0,0,0,32.594,35.438a2.847,2.847,0,0,0,2.844-2.844V26.1A2.847,2.847,0,0,0,32.594,23.261Z" fill="#037ee6"/>
  </g>
</svg>
